<svg height="512" viewBox="0 0 64 64" width="512" xmlns="http://www.w3.org/2000/svg">
    <g id="exchange-money-dollar-hand-market">
        <path d="m55 52.67v.91a2 2 0 0 1 -1.33 1.89l-15.67 5.53h-17l-12-4v-16h7l15.56 4.58a1.992 1.992 0 0 1 1.44 1.92v.5a2.006 2.006 0 0 1 -2 2h-12l9 5h10l14.44-4.25a2 2 0 0 1 2.56 1.92z" fill="#ffdaaa" />
        <path d="m55 52.67v.91a2 2 0 0 1 -1.33 1.89l-15.67 5.53h-17l-12-4v-1.33l10 3.33h17l15.67-5.53a2 2 0 0 0 1.33-1.89v-.91a2.006 2.006 0 0 1 2 2z" fill="#ffb655" />
        <path d="m9 38v22l-6 1v-24z" fill="#46f8ff" />
        <path d="m9 57v3l-6 1v-3z" fill="#00d7df" />
        <path d="m58 9-6 6-6-6h4v-6h4v6z" fill="#ff6243" />
        <g fill="#ffde55">
            <circle cx="39" cy="30" r="14" />
            <circle cx="39" cy="30" r="14" />
            <path d="m53 30h-4a9.966 9.966 0 0 0 -1.34-5l3.46-2a13.854 13.854 0 0 1 1.88 7z" />
        </g>
        <path d="m49 30h4a13.854 13.854 0 0 1 -1.88 7l-3.46-2a9.966 9.966 0 0 0 1.34-5z" fill="#c6c5ca" />
        <path d="m51.12 23-3.46 2a10.19 10.19 0 0 0 -3.66-3.66l2-3.46a13.821 13.821 0 0 1 5.12 5.12z" fill="#c6c5ca" />
        <path d="m47.66 35 3.46 2a13.821 13.821 0 0 1 -5.12 5.12l-2-3.46a10.19 10.19 0 0 0 3.66-3.66z" fill="#ffde55" />
        <path d="m44 38.66 2 3.46a13.854 13.854 0 0 1 -7 1.88v-4a9.966 9.966 0 0 0 5-1.34z" fill="#c6c5ca" />
        <path d="m46 17.88-2 3.46a9.966 9.966 0 0 0 -5-1.34v-4a13.854 13.854 0 0 1 7 1.88z" fill="#ffde55" />
        <path d="m39 40v4a13.854 13.854 0 0 1 -7-1.88l2-3.46a9.966 9.966 0 0 0 5 1.34z" fill="#ffde55" />
        <path d="m39 16v4a9.966 9.966 0 0 0 -5 1.34l-2-3.46a13.854 13.854 0 0 1 7-1.88z" fill="#c6c5ca" />
        <path d="m32 17.88 2 3.46a10.19 10.19 0 0 0 -3.66 3.66l-3.46-2a13.821 13.821 0 0 1 5.12-5.12z" fill="#ffde55" />
        <path d="m34 38.66-2 3.46a13.821 13.821 0 0 1 -5.12-5.12l3.46-2a10.19 10.19 0 0 0 3.66 3.66z" fill="#c6c5ca" />
        <path d="m26.88 23 3.46 2a9.966 9.966 0 0 0 -1.34 5h-4a13.854 13.854 0 0 1 1.88-7z" fill="#c6c5ca" />
        <path d="m30.34 35-3.46 2a13.854 13.854 0 0 1 -1.88-7h4a9.966 9.966 0 0 0 1.34 5z" fill="#ffde55" />
        <path d="m49 30a10 10 0 0 1 -17.81 6.24 9.85 9.85 0 0 0 3.81.76 10 10 0 0 0 7.81-16.24 9.991 9.991 0 0 1 6.19 9.24z" fill="#ffcd00" />
        <path d="m32 9h-4v6h-4v-6h-4l6-6z" fill="#2488ff" />
        <path d="m21.982 21.554a18.987 18.987 0 0 0 0 16.892l1.79-.892a16.987 16.987 0 0 1 0-15.108z" />
        <path d="m19.772 37.554a16.987 16.987 0 0 1 0-15.108l-1.79-.892a18.987 18.987 0 0 0 0 16.892z" />
        <path d="m60.018 21.554-1.79.892a16.987 16.987 0 0 1 0 15.108l1.79.892a18.987 18.987 0 0 0 0-16.892z" />
        <path d="m54.228 22.446a16.987 16.987 0 0 1 0 15.108l1.79.892a18.987 18.987 0 0 0 0-16.892z" />
        <path d="m24 30a15 15 0 1 0 15-15 15.017 15.017 0 0 0 -15 15zm16-10.949v-2a12.861 12.861 0 0 1 4.606 1.238l-1 1.735a10.9 10.9 0 0 0 -3.606-.973zm-2 0a10.9 10.9 0 0 0 -3.6.973l-1-1.735a12.861 12.861 0 0 1 4.6-1.238zm1 1.949a9 9 0 1 1 -9 9 9.011 9.011 0 0 1 9-9zm10.949 10h2a12.878 12.878 0 0 1 -1.02 4.155l-1.747-1.008a10.918 10.918 0 0 0 .767-3.147zm0-2a10.9 10.9 0 0 0 -.973-3.605l1.735-1a12.861 12.861 0 0 1 1.238 4.605zm-5.57 10.585 1 1.73a12.891 12.891 0 0 1 -4.379 1.515v-2.021a10.917 10.917 0 0 0 3.379-1.224zm-16.328-8.585a10.9 10.9 0 0 0 1.191 4.057l-1.735 1a12.883 12.883 0 0 1 -1.456-5.057zm0-2h-2a12.861 12.861 0 0 1 1.238-4.606l1.735 1a10.9 10.9 0 0 0 -.973 3.606zm.533 8.746 1.742-1.006a11.062 11.062 0 0 0 3.066 2.706l-1 1.73a13.072 13.072 0 0 1 -3.808-3.43zm5.6 4.32 1.016-1.756a10.911 10.911 0 0 0 3.8.69v2a12.908 12.908 0 0 1 -4.812-.934zm12.857-1.866-1.008-1.746a11.082 11.082 0 0 0 2.222-2.528l1.731 1a13.091 13.091 0 0 1 -2.945 3.274zm2.677-17.538-1.742 1.006a11.1 11.1 0 0 0 -2.639-2.639l1.006-1.742a13.142 13.142 0 0 1 3.375 3.37zm-18.061-3.38 1.006 1.742a11.1 11.1 0 0 0 -2.639 2.639l-1.742-1.006a13.142 13.142 0 0 1 3.375-3.375z" />
        <path d="m38 37h2v-2a2 2 0 0 0 2-2v-2a2 2 0 0 0 -2-2h-2v-2h4v-2h-2v-2h-2v2a2 2 0 0 0 -2 2v2a2 2 0 0 0 2 2h2v2h-4v2h2z" />
        <path d="m54.8 50.27a3.025 3.025 0 0 0 -2.65-.48l-14.29 4.21h-9.6l-5.4-3h8.14a3.009 3.009 0 0 0 3-3v-.5a3.015 3.015 0 0 0 -2.15-2.88l-15.57-4.58a.863.863 0 0 0 -.28-.04h-6v-2a1 1 0 0 0 -.84-.99l-6-1a1 1 0 0 0 -1.16.99v24a1 1 0 0 0 1 1 .86.86 0 0 0 .16-.01l6-1a1 1 0 0 0 .84-.99v-1.61l10.68 3.56a1.185 1.185 0 0 0 .32.05h17a.919.919 0 0 0 .33-.06l15.67-5.53a3 3 0 0 0 2-2.83v-.91a2.984 2.984 0 0 0 -1.2-2.4zm-46.8 8.88-4 .67v-21.64l4 .67zm46-5.57a1 1 0 0 1 -.67.95l-15.5 5.47h-16.67l-11.16-3.72v-14.28h5.86l15.42 4.54a1.008 1.008 0 0 1 .72.96v.5a1 1 0 0 1 -1 1h-12a1 1 0 0 0 -.49 1.87l9 5a.947.947 0 0 0 .49.13h10a.863.863 0 0 0 .28-.04l14.44-4.25a1 1 0 0 1 1.28.96z" />
        <path d="m20 10h3v5a1 1 0 0 0 1 1h4a1 1 0 0 0 1-1v-5h3a1 1 0 0 0 .707-1.707l-6-6a1 1 0 0 0 -1.414 0l-6 6a1 1 0 0 0 .707 1.707zm6-5.586 3.586 3.586h-1.586a1 1 0 0 0 -1 1v5h-2v-5a1 1 0 0 0 -1-1h-1.586z" />
        <path d="m51.293 15.707a1 1 0 0 0 1.414 0l6-6a1 1 0 0 0 -.707-1.707h-3v-5a1 1 0 0 0 -1-1h-4a1 1 0 0 0 -1 1v5h-3a1 1 0 0 0 -.707 1.707zm-1.293-5.707a1 1 0 0 0 1-1v-5h2v5a1 1 0 0 0 1 1h1.586l-3.586 3.586-3.586-3.586z" />
    </g>
</svg>